<svg xmlns="http://www.w3.org/2000/svg" width="3840" height="3840" viewBox="0 0 2880 2880"><path d="M374.4 374.4C316.8 432 288 763.2 288 1375.2c0 741.6 21.6 943.2 115.2 1029.6 86.4 93.6 288 115.2 1036.8 115.2s950.4-21.6 1036.8-115.2c93.6-86.4 115.2-288 115.2-1029.6 0-612-28.8-943.2-86.4-1000.8C2383.2 252 496.8 252 374.4 374.4M2232 828c72 86.4-7.2 208.8-432 720-288 338.4-540 612-568.8 612s-194.4-144-367.2-324c-259.2-266.4-295.2-331.2-216-424.8 79.2-100.8 115.2-93.6 302.4 64.8 115.2 100.8 237.6 180 273.6 180s237.6-208.8 446.4-468 403.2-468 424.8-468c28.8 0 86.4 50.4 136.8 108"/></svg>