<svg xmlns="http://www.w3.org/2000/svg" width="3840" height="3840" viewBox="0 0 2880 2880"><path d="M338.4 331.2C309.6 360 288 842.4 288 1404c0 691.2 28.8 1044 86.4 1101.6s403.2 86.4 1072.8 86.4c748.8 0 1000.8-21.6 1065.6-100.8 57.6-64.8 79.2-432 64.8-1130.4C2556 324 2556 324 1468.8 302.4c-590.4-7.2-1101.6 7.2-1130.4 28.8M2196 921.6c0 93.6-885.6 1166.4-964.8 1166.4-28.8 0-180-129.6-331.2-288-194.4-201.6-259.2-309.6-201.6-367.2 50.4-50.4 136.8-21.6 295.2 108 115.2 100.8 230.4 187.2 252 187.2s208.8-208.8 417.6-468C2008.8 828 2196 712.8 2196 921.6"/></svg>